# Exported from ProBuilder
# http://www.procore3d.com/probuilder
# 1/30/2020 8:06:06 PM

mtllib ./c1.mtl
o c1

g c1
v 0.9999999 -2.592 0.5
v 5.960464E-08 -2.592 0.5
v 0.9999999 -1.592 0.5
v 5.960464E-08 -1.592 0.5
v -0.9999999 -2.592 0.5
v -0.9999999 -2.592 -0.5
v -0.9999999 -1.592 0.5
v -0.9999999 -1.592 -0.5
v 5.960464E-08 -2.592 -0.5
v 0.9999999 -2.592 -0.5
v 5.960464E-08 -1.592 -0.5
v 0.9999999 -1.592 -0.5
v 0.9999999 -2.592 -0.5
v 0.9999999 -2.592 0.5
v 0.9999999 -1.592 -0.5
v 0.9999999 -1.592 0.5
v 0.9999999 -1.592 0.5
v 5.960464E-08 -1.592 0.5
v 0.9999999 -1.592 -0.5
v 5.960464E-08 -1.592 -0.5
v 0.9999999 -2.592 -0.5
v 5.960464E-08 -2.592 -0.5
v 0.9999999 -2.592 0.5
v 5.960464E-08 -2.592 0.5
v 5.960464E-08 -2.592 0.5
v 5.960464E-08 -2.592 -0.5
v -0.9999999 -2.592 0.5
v -0.9999999 -2.592 -0.5
v 5.960464E-08 -1.592 0.5
v 5.960464E-08 -2.592 0.5
v -0.9999999 -1.592 0.5
v -0.9999999 -2.592 0.5
v 5.960464E-08 -2.592 -0.5
v 5.960464E-08 -1.592 -0.5
v -0.9999999 -2.592 -0.5
v -0.9999999 -1.592 -0.5
v 5.960464E-08 0.408 -0.5
v 5.960464E-08 0.408 0.5
v -0.9999999 0.408 -0.5
v -0.9999999 0.408 0.5
v 5.960464E-08 -1.592 -0.5
v 5.960464E-08 -1.592 0.5
v 5.960464E-08 -0.5919998 -0.5
v 5.960464E-08 -0.5919998 0.5
v -0.9999999 -1.592 -0.5
v 5.960464E-08 -1.592 -0.5
v -0.9999999 -0.5919998 -0.5
v 5.960464E-08 -0.5919998 -0.5
v 5.960464E-08 -1.592 0.5
v -0.9999999 -1.592 0.5
v 5.960464E-08 -0.5919998 0.5
v -0.9999999 -0.5919998 0.5
v -0.9999999 -1.592 0.5
v -0.9999999 -1.592 -0.5
v -0.9999999 -0.5919998 0.5
v -0.9999999 -0.5919998 -0.5
v 0.01507288 -0.5919998 -0.5
v 0.01507288 -0.5919998 0.5
v 0.01507288 0.408 -0.5
v 0.01507288 0.408 0.5
v -0.9999999 -0.5919998 -0.5
v 5.960464E-08 -0.5919998 -0.5
v -0.9999999 0.408 -0.5
v 5.960464E-08 0.408 -0.5
v 5.960464E-08 -0.5919998 0.5
v -0.9999999 -0.5919998 0.5
v 5.960464E-08 0.408 0.5
v -0.9999999 0.408 0.5
v -0.9999999 -0.5919998 0.5
v -0.9999999 -0.5919998 -0.5
v -0.9999999 0.408 0.5
v -0.9999999 0.408 -0.5
v 5.960464E-08 -0.5919998 -0.5
v 5.960464E-08 -0.5919998 0.5
v 0.01507288 -0.5919998 -0.5
v 0.01507288 -0.5919998 0.5
v 5.960464E-08 0.408 -0.5
v 5.960464E-08 -0.5919998 -0.5
v 0.01507288 0.408 -0.5
v 0.01507288 -0.5919998 -0.5
v 5.960464E-08 -0.5919998 0.5
v 5.960464E-08 0.408 0.5
v 0.01507288 -0.5919998 0.5
v 0.01507288 0.408 0.5
v 5.960464E-08 0.408 0.5
v 5.960464E-08 0.408 -0.5
v 0.01507288 0.408 0.5
v 0.01507288 0.408 -0.5

vn 0 0 1
vn 0 0 1
vn 0 0 1
vn 0 0 1
vn -1 0 0
vn -1 0 0
vn -1 0 0
vn -1 0 0
vn 0 0 -1
vn 0 0 -1
vn 0 0 -1
vn 0 0 -1
vn 1 0 0
vn 1 0 0
vn 1 0 0
vn 1 0 0
vn 0 1 0
vn 0 1 0
vn 0 1 0
vn 0 1 0
vn 0 -1 0
vn 0 -1 0
vn 0 -1 0
vn 0 -1 0
vn 0 -1 0
vn 0 -1 0
vn 0 -1 0
vn 0 -1 0
vn 0 0 1
vn 0 0 1
vn 0 0 1
vn 0 0 1
vn 0 0 -1
vn 0 0 -1
vn 0 0 -1
vn 0 0 -1
vn 0 1 0
vn 0 1 0
vn 0 1 0
vn 0 1 0
vn 1 0 0
vn 1 0 0
vn 1 0 0
vn 1 0 0
vn 0 0 -1
vn 0 0 -1
vn 0 0 -1
vn 0 0 -1
vn 0 0 1
vn 0 0 1
vn 0 0 1
vn 0 0 1
vn -1 0 0
vn -1 0 0
vn -1 0 0
vn -1 0 0
vn 1 0 0
vn 1 0 0
vn 1 0 0
vn 1 0 0
vn 0 0 -1
vn 0 0 -1
vn 0 0 -1
vn 0 0 -1
vn 0 0 1
vn 0 0 1
vn 0 0 1
vn 0 0 1
vn -1 0 0
vn -1 0 0
vn -1 0 0
vn -1 0 0
vn 0 -1 0
vn 0 -1 0
vn 0 -1 0
vn 0 -1 0
vn 0 0 -1
vn 0 0 -1
vn 0 0 -1
vn 0 0 -1
vn 0 0 1
vn 0 0 1
vn 0 0 1
vn 0 0 1
vn 0 1 0
vn 0 1 0
vn 0 1 0
vn 0 1 0

vt 0 0
vt -1 0
vt 0 1
vt -1 1
vt 0 0
vt -1 0
vt 0 1
vt -1 1
vt 1 0
vt 0 0
vt 1 1
vt 0 1
vt 1 0
vt 0 0
vt 1 1
vt 0 1
vt 0 0
vt 1 0
vt 0 -1
vt 1 -1
vt 0 -1
vt -1 -1
vt 0 0
vt -1 0
vt -1 0
vt -1 -1
vt -2 0
vt -2 -1
vt -1 1
vt -1 0
vt -2 1
vt -2 0
vt 1 0
vt 1 1
vt 2 0
vt 2 1
vt 1 -1
vt 1 0
vt 2 -1
vt 2 0
vt 1 1
vt 0 1
vt 1 2
vt 0 2
vt 2 1
vt 1 1
vt 2 2
vt 1 2
vt -1 1
vt -2 1
vt -1 2
vt -2 2
vt 0 1
vt -1 1
vt 0 2
vt -1 2
vt 1 2
vt 0 2
vt 1 3
vt 0 3
vt 2 2
vt 1 2
vt 2 3
vt 1 3
vt -1 2
vt -2 2
vt -1 3
vt -2 3
vt 0 2
vt -1 2
vt 0 3
vt -1 3
vt -1 -1
vt -1 0
vt -0.9849269 -1
vt -0.9849269 0
vt 1 3
vt 1 2
vt 0.9849269 3
vt 0.9849269 2
vt -1 2
vt -1 3
vt -0.9849269 2
vt -0.9849269 3
vt 1 0
vt 1 -1
vt 0.9849269 0
vt 0.9849269 -1

g c1
usemtl purple
f 3/3/3 4/4/4 2/2/2 1/1/1
f 7/7/7 8/8/8 6/6/6 5/5/5
f 11/11/11 12/12/12 10/10/10 9/9/9
f 15/15/15 16/16/16 14/14/14 13/13/13
f 19/19/19 20/20/20 18/18/18 17/17/17
f 23/23/23 24/24/24 22/22/22 21/21/21
f 27/27/27 28/28/28 26/26/26 25/25/25
f 31/31/31 32/32/32 30/30/30 29/29/29
f 35/35/35 36/36/36 34/34/34 33/33/33
f 39/39/39 40/40/40 38/38/38 37/37/37
f 43/43/43 44/44/44 42/42/42 41/41/41
f 47/47/47 48/48/48 46/46/46 45/45/45
f 51/51/51 52/52/52 50/50/50 49/49/49
f 55/55/55 56/56/56 54/54/54 53/53/53
f 59/59/59 60/60/60 58/58/58 57/57/57
f 63/63/63 64/64/64 62/62/62 61/61/61
f 67/67/67 68/68/68 66/66/66 65/65/65
f 71/71/71 72/72/72 70/70/70 69/69/69
f 75/75/75 76/76/76 74/74/74 73/73/73
f 79/79/79 80/80/80 78/78/78 77/77/77
f 83/83/83 84/84/84 82/82/82 81/81/81
f 87/87/87 88/88/88 86/86/86 85/85/85

